<mxfile host="app.diagrams.net" modified="2022-05-19T22:32:42.644Z" agent="5.0 (Windows NT 10.0; Win64; x64) AppleWebKit/537.36 (KHTML, like Gecko) Chrome/101.0.4951.67 Safari/537.36" etag="CEqsoHjs_0gQAjn31Hw2" version="18.0.4" type="github">
  <diagram id="6a731a19-8d31-9384-78a2-239565b7b9f0" name="Page-1">
    <mxGraphModel dx="1200" dy="440" grid="1" gridSize="10" guides="1" tooltips="1" connect="1" arrows="1" fold="1" page="1" pageScale="1" pageWidth="1169" pageHeight="827" background="none" math="0" shadow="0">
      <root>
        <mxCell id="0" />
        <mxCell id="1" parent="0" />
        <mxCell id="1350" value="&lt;span style=&quot;font-size: 12px;&quot;&gt;Selon moi quel serai un bon&amp;nbsp;pilotage pour ce projet?&lt;/span&gt;" style="ellipse;whiteSpace=wrap;html=1;shadow=0;fontFamily=Helvetica;fontSize=20;fontColor=#FFFFFF;align=center;strokeWidth=3;fillColor=#1699D3;strokeColor=none;" parent="1" vertex="1">
          <mxGeometry x="411.5" y="511.5" width="120" height="120" as="geometry" />
        </mxCell>
        <mxCell id="1351" value="&lt;font style=&quot;vertical-align: inherit;&quot;&gt;&lt;font style=&quot;vertical-align: inherit;&quot;&gt;&lt;b&gt;&lt;font style=&quot;font-size: 12px;&quot;&gt;&lt;font style=&quot;vertical-align: inherit;&quot;&gt;&lt;font style=&quot;vertical-align: inherit;&quot;&gt;&lt;font style=&quot;vertical-align: inherit;&quot;&gt;&lt;font style=&quot;vertical-align: inherit;&quot;&gt;D&#39;où je viens ? &lt;/font&gt;&lt;font style=&quot;vertical-align: inherit;&quot;&gt;Qu&#39;est-ce que m&#39;amène dans ce projet&amp;nbsp;&lt;/font&gt;&lt;/font&gt;&lt;/font&gt;&lt;/font&gt;&lt;/font&gt;&lt;span style=&quot;font-size: 19px;&quot;&gt;&amp;nbsp;&lt;/span&gt;&lt;/b&gt;&lt;/font&gt;&lt;/font&gt;" style="ellipse;whiteSpace=wrap;html=1;shadow=0;fontFamily=Times New Roman;fontSize=20;fontColor=#FFFFFF;align=center;strokeWidth=3;fillColor=#F08705;strokeColor=none;gradientColor=none;" parent="1" vertex="1">
          <mxGeometry x="1070" y="241.5" width="140" height="120" as="geometry" />
        </mxCell>
        <mxCell id="1352" value="&lt;font style=&quot;font-size: 12px;&quot;&gt;Ou je veux aller?&lt;br&gt;Quelles sont les prin-&lt;br&gt;cipales finalités du&lt;br&gt;projet selon moi&lt;br&gt;&lt;/font&gt;" style="ellipse;whiteSpace=wrap;html=1;shadow=0;fontFamily=Helvetica;fontSize=20;fontColor=#FFFFFF;align=center;strokeWidth=3;fillColor=#E85642;strokeColor=none;" parent="1" vertex="1">
          <mxGeometry x="1699" y="495.5" width="129" height="120" as="geometry" />
        </mxCell>
        <mxCell id="1354" value="&lt;font style=&quot;font-size: 12px;&quot;&gt;Les passagers avec&amp;nbsp;&lt;br&gt;qui je veux embarquer?&lt;br&gt;&lt;/font&gt;" style="ellipse;whiteSpace=wrap;html=1;shadow=0;fontFamily=Helvetica;fontSize=20;fontColor=#FFFFFF;align=center;strokeWidth=3;fillColor=#736ca8;strokeColor=none;" parent="1" vertex="1">
          <mxGeometry x="1641" y="963" width="120" height="120" as="geometry" />
        </mxCell>
        <mxCell id="1356" value="&lt;font style=&quot;font-size: 12px;&quot;&gt;Selon moi quels sont&lt;br&gt;les freins et les obstacle du projet?&lt;br&gt;&lt;/font&gt;" style="ellipse;whiteSpace=wrap;html=1;shadow=0;fontFamily=Helvetica;fontSize=20;fontColor=#FFFFFF;align=center;strokeWidth=3;fillColor=#E85642;strokeColor=none;" parent="1" vertex="1">
          <mxGeometry x="460.5" y="1068.5" width="120" height="120" as="geometry" />
        </mxCell>
        <mxCell id="1357" value="&lt;font style=&quot;vertical-align: inherit;&quot;&gt;&lt;font style=&quot;vertical-align: inherit;&quot;&gt;&lt;font style=&quot;vertical-align: inherit;&quot;&gt;&lt;font style=&quot;vertical-align: inherit;&quot;&gt;Redville&lt;br&gt;L&#39;idée de co-construction&lt;br&gt;&lt;/font&gt;&lt;/font&gt;&lt;/font&gt;&lt;/font&gt;" style="rounded=1;fillColor=#f5af58;strokeColor=none;strokeWidth=3;shadow=0;html=1;fontColor=#FFFFFF;" parent="1" vertex="1">
          <mxGeometry x="930" y="411.5" width="139.5" height="40" as="geometry" />
        </mxCell>
        <mxCell id="1358" value="" style="rounded=1;fillColor=#64BBE2;strokeColor=none;strokeWidth=3;shadow=0;html=1;fontColor=#FFFFFF;" parent="1" vertex="1">
          <mxGeometry x="236.5" y="656.5" width="130" height="40" as="geometry" />
        </mxCell>
        <mxCell id="1359" style="endArrow=none;strokeWidth=6;strokeColor=#1699D3;html=1;exitX=0.021;exitY=0.38;exitDx=0;exitDy=0;exitPerimeter=0;" parent="1" edge="1">
          <mxGeometry relative="1" as="geometry">
            <mxPoint x="1014.1700000000005" y="774.0999999999999" as="sourcePoint" />
            <mxPoint x="500" y="610" as="targetPoint" />
          </mxGeometry>
        </mxCell>
        <mxCell id="1360" style="endArrow=none;strokeWidth=6;strokeColor=#f08705;html=1;" parent="1" edge="1">
          <mxGeometry relative="1" as="geometry">
            <mxPoint x="1133" y="718" as="sourcePoint" />
            <mxPoint x="1133" y="360" as="targetPoint" />
          </mxGeometry>
        </mxCell>
        <mxCell id="1361" style="endArrow=none;strokeWidth=6;strokeColor=#E85642;html=1;entryX=0;entryY=1;entryDx=0;entryDy=0;" parent="1" edge="1">
          <mxGeometry relative="1" as="geometry">
            <mxPoint x="1290" y="770" as="sourcePoint" />
            <mxPoint x="1718.5735931288082" y="585.9264068711925" as="targetPoint" />
          </mxGeometry>
        </mxCell>
        <mxCell id="1364" style="endArrow=none;strokeWidth=6;strokeColor=#736ca8;html=1;" parent="1" edge="1">
          <mxGeometry relative="1" as="geometry">
            <mxPoint x="1296" y="852.5979020979021" as="sourcePoint" />
            <mxPoint x="1644" y="1005" as="targetPoint" />
          </mxGeometry>
        </mxCell>
        <mxCell id="1366" value="" style="edgeStyle=none;endArrow=none;strokeWidth=6;strokeColor=#E85642;html=1;entryX=1;entryY=0;entryDx=0;entryDy=0;" parent="1" target="1356" edge="1">
          <mxGeometry x="283" y="197.5" width="100" height="100" as="geometry">
            <mxPoint x="994.9999999999995" y="858.527397260274" as="sourcePoint" />
            <mxPoint x="635" y="1045" as="targetPoint" />
            <Array as="points" />
          </mxGeometry>
        </mxCell>
        <mxCell id="1367" value="" style="rounded=1;fillColor=#64BBE2;strokeColor=none;strokeWidth=3;shadow=0;html=1;fontColor=#FFFFFF;" parent="1" vertex="1">
          <mxGeometry x="306.5" y="706.5" width="130" height="40" as="geometry" />
        </mxCell>
        <mxCell id="1368" value="Assemblé des représentants&lt;br&gt;des acteurs + soutien de&amp;nbsp;&lt;br&gt;chaque orga sur les actions" style="rounded=1;fillColor=#64BBE2;strokeColor=none;strokeWidth=3;shadow=0;html=1;fontColor=#FFFFFF;" parent="1" vertex="1">
          <mxGeometry x="180" y="580" width="156.5" height="46.5" as="geometry" />
        </mxCell>
        <mxCell id="1369" value="Légèreté&lt;br&gt;multi-acteurs" style="rounded=1;fillColor=#64BBE2;strokeColor=none;strokeWidth=3;shadow=0;html=1;fontColor=#FFFFFF;" parent="1" vertex="1">
          <mxGeometry x="206.5" y="511.5" width="130" height="40" as="geometry" />
        </mxCell>
        <mxCell id="1370" value="Agrégateur d&#39;opportunité&lt;br&gt;Observatoire et évaluation d&#39;impacts&lt;br&gt;Vrai partage" style="rounded=1;fillColor=#64BBE2;strokeColor=none;strokeWidth=3;shadow=0;html=1;fontColor=#FFFFFF;" parent="1" vertex="1">
          <mxGeometry x="180" y="440" width="196.5" height="50" as="geometry" />
        </mxCell>
        <mxCell id="1371" value="Un lieu d&#39;échange en ligne&lt;br&gt;Prise de décision collective&lt;br&gt;Temps fort IRL&amp;nbsp;" style="rounded=1;fillColor=#64BBE2;strokeColor=none;strokeWidth=3;shadow=0;html=1;fontColor=#FFFFFF;" parent="1" vertex="1">
          <mxGeometry x="270" y="386.5" width="156.5" height="40" as="geometry" />
        </mxCell>
        <mxCell id="1372" value="Des temps collectifs régulier&lt;br&gt;Une mise en commune régulière&lt;br&gt;Un lieu qui rassemble" style="rounded=1;fillColor=#64BBE2;strokeColor=none;strokeWidth=3;shadow=0;html=1;fontColor=#FFFFFF;" parent="1" vertex="1">
          <mxGeometry x="360" y="310" width="170" height="56.5" as="geometry" />
        </mxCell>
        <mxCell id="1373" value="Equipe&lt;br&gt;Multi asso&lt;br&gt;Territoire(moyen)&lt;br&gt;Politique (orientation)&lt;br&gt;" style="rounded=1;fillColor=#64BBE2;strokeColor=none;strokeWidth=3;shadow=0;html=1;fontColor=#FFFFFF;" parent="1" vertex="1">
          <mxGeometry x="496.5" y="370" width="130" height="56.5" as="geometry" />
        </mxCell>
        <mxCell id="1374" value="Gouvernance partagée" style="rounded=1;fillColor=#64BBE2;strokeColor=none;strokeWidth=3;shadow=0;html=1;fontColor=#FFFFFF;" parent="1" vertex="1">
          <mxGeometry x="551.5" y="446.5" width="130" height="40" as="geometry" />
        </mxCell>
        <mxCell id="1375" value="Objectifs&lt;br&gt;Les impacts&lt;br&gt;indicateurs" style="rounded=1;fillColor=#64BBE2;strokeColor=none;strokeWidth=3;shadow=0;html=1;fontColor=#FFFFFF;" parent="1" vertex="1">
          <mxGeometry x="586.5" y="506.5" width="130" height="40" as="geometry" />
        </mxCell>
        <mxCell id="1376" value="Motivation" style="rounded=1;fillColor=#64BBE2;strokeColor=none;strokeWidth=3;shadow=0;html=1;fontColor=#FFFFFF;" parent="1" vertex="1">
          <mxGeometry x="601.5" y="586.5" width="130" height="40" as="geometry" />
        </mxCell>
        <mxCell id="1377" value="" style="edgeStyle=none;endArrow=none;strokeWidth=3;strokeColor=#64BBE2;html=1;" parent="1" source="1350" target="1376" edge="1">
          <mxGeometry x="-333.5" y="296.5" width="100" height="100" as="geometry">
            <mxPoint x="-333.5" y="396.5" as="sourcePoint" />
            <mxPoint x="-233.5" y="296.5" as="targetPoint" />
          </mxGeometry>
        </mxCell>
        <mxCell id="1378" value="" style="edgeStyle=none;endArrow=none;strokeWidth=3;strokeColor=#64BBE2;html=1;" parent="1" source="1350" target="1367" edge="1">
          <mxGeometry x="-333.5" y="296.5" width="100" height="100" as="geometry">
            <mxPoint x="-333.5" y="396.5" as="sourcePoint" />
            <mxPoint x="-233.5" y="296.5" as="targetPoint" />
          </mxGeometry>
        </mxCell>
        <mxCell id="1379" value="" style="edgeStyle=none;endArrow=none;strokeWidth=3;strokeColor=#64BBE2;html=1;" parent="1" source="1350" target="1358" edge="1">
          <mxGeometry x="-333.5" y="296.5" width="100" height="100" as="geometry">
            <mxPoint x="-333.5" y="396.5" as="sourcePoint" />
            <mxPoint x="-233.5" y="296.5" as="targetPoint" />
          </mxGeometry>
        </mxCell>
        <mxCell id="1380" value="" style="edgeStyle=none;endArrow=none;strokeWidth=3;strokeColor=#64BBE2;html=1;" parent="1" source="1350" target="1368" edge="1">
          <mxGeometry x="-333.5" y="296.5" width="100" height="100" as="geometry">
            <mxPoint x="-333.5" y="396.5" as="sourcePoint" />
            <mxPoint x="-233.5" y="296.5" as="targetPoint" />
          </mxGeometry>
        </mxCell>
        <mxCell id="1381" value="" style="edgeStyle=none;endArrow=none;strokeWidth=3;strokeColor=#64BBE2;html=1;" parent="1" source="1350" target="1369" edge="1">
          <mxGeometry x="-333.5" y="296.5" width="100" height="100" as="geometry">
            <mxPoint x="-333.5" y="396.5" as="sourcePoint" />
            <mxPoint x="-233.5" y="296.5" as="targetPoint" />
          </mxGeometry>
        </mxCell>
        <mxCell id="1382" value="" style="edgeStyle=none;endArrow=none;strokeWidth=3;strokeColor=#64BBE2;html=1;" parent="1" source="1350" target="1370" edge="1">
          <mxGeometry x="-333.5" y="296.5" width="100" height="100" as="geometry">
            <mxPoint x="-333.5" y="396.5" as="sourcePoint" />
            <mxPoint x="-233.5" y="296.5" as="targetPoint" />
          </mxGeometry>
        </mxCell>
        <mxCell id="1383" value="" style="edgeStyle=none;endArrow=none;strokeWidth=3;strokeColor=#64BBE2;html=1;" parent="1" source="1350" target="1371" edge="1">
          <mxGeometry x="-333.5" y="296.5" width="100" height="100" as="geometry">
            <mxPoint x="-333.5" y="396.5" as="sourcePoint" />
            <mxPoint x="-233.5" y="296.5" as="targetPoint" />
          </mxGeometry>
        </mxCell>
        <mxCell id="1384" value="" style="edgeStyle=none;endArrow=none;strokeWidth=3;strokeColor=#64BBE2;html=1;" parent="1" source="1350" target="1372" edge="1">
          <mxGeometry x="-333.5" y="296.5" width="100" height="100" as="geometry">
            <mxPoint x="-333.5" y="396.5" as="sourcePoint" />
            <mxPoint x="-233.5" y="296.5" as="targetPoint" />
          </mxGeometry>
        </mxCell>
        <mxCell id="1385" value="" style="edgeStyle=none;endArrow=none;strokeWidth=3;strokeColor=#64BBE2;html=1;" parent="1" source="1350" target="1373" edge="1">
          <mxGeometry x="-333.5" y="296.5" width="100" height="100" as="geometry">
            <mxPoint x="-333.5" y="396.5" as="sourcePoint" />
            <mxPoint x="-233.5" y="296.5" as="targetPoint" />
          </mxGeometry>
        </mxCell>
        <mxCell id="1386" value="" style="edgeStyle=none;endArrow=none;strokeWidth=3;strokeColor=#64BBE2;html=1;" parent="1" source="1350" target="1374" edge="1">
          <mxGeometry x="-333.5" y="296.5" width="100" height="100" as="geometry">
            <mxPoint x="-333.5" y="396.5" as="sourcePoint" />
            <mxPoint x="-233.5" y="296.5" as="targetPoint" />
          </mxGeometry>
        </mxCell>
        <mxCell id="1387" value="" style="edgeStyle=none;endArrow=none;strokeWidth=3;strokeColor=#64BBE2;html=1;" parent="1" source="1350" target="1375" edge="1">
          <mxGeometry x="-333.5" y="296.5" width="100" height="100" as="geometry">
            <mxPoint x="-333.5" y="396.5" as="sourcePoint" />
            <mxPoint x="-233.5" y="296.5" as="targetPoint" />
          </mxGeometry>
        </mxCell>
        <mxCell id="1388" value="&lt;font style=&quot;vertical-align: inherit;&quot;&gt;&lt;font style=&quot;vertical-align: inherit;&quot;&gt;&lt;font style=&quot;vertical-align: inherit;&quot;&gt;&lt;font style=&quot;vertical-align: inherit;&quot;&gt;Sensibilité&amp;nbsp;&lt;br&gt;Cause pour le climat&lt;br&gt;&lt;/font&gt;&lt;/font&gt;&lt;/font&gt;&lt;/font&gt;" style="rounded=1;fillColor=#f5af58;strokeColor=none;strokeWidth=3;shadow=0;html=1;fontColor=#FFFFFF;" parent="1" vertex="1">
          <mxGeometry x="889.5" y="349.5" width="120" height="40" as="geometry" />
        </mxCell>
        <mxCell id="1389" value="&lt;font style=&quot;vertical-align: inherit;&quot;&gt;&lt;font style=&quot;vertical-align: inherit;&quot;&gt;&lt;font style=&quot;vertical-align: inherit;&quot;&gt;&lt;font style=&quot;vertical-align: inherit;&quot;&gt;Depuis 5 ans &lt;/font&gt;&lt;/font&gt;&lt;br&gt;&lt;font style=&quot;vertical-align: inherit;&quot;&gt;&lt;font style=&quot;vertical-align: inherit;&quot;&gt;Alternatiba N, Agir Faire&lt;br&gt;&lt;/font&gt;&lt;/font&gt;&lt;font style=&quot;vertical-align: inherit;&quot;&gt;&lt;font style=&quot;vertical-align: inherit;&quot;&gt;connaitre les solutions&lt;/font&gt;&lt;/font&gt;&lt;br&gt;&lt;br&gt;&lt;/font&gt;&lt;/font&gt;" style="rounded=1;fillColor=#f5af58;strokeColor=none;strokeWidth=3;shadow=0;html=1;fontColor=#FFFFFF;" parent="1" vertex="1">
          <mxGeometry x="870" y="283.5" width="129.5" height="48.5" as="geometry" />
        </mxCell>
        <mxCell id="1390" value="&lt;font style=&quot;vertical-align: inherit;&quot;&gt;&lt;font style=&quot;vertical-align: inherit;&quot;&gt;&lt;font style=&quot;vertical-align: inherit;&quot;&gt;&lt;font style=&quot;vertical-align: inherit;&quot;&gt;&lt;font style=&quot;vertical-align: inherit;&quot;&gt;&lt;font style=&quot;vertical-align: inherit;&quot;&gt;&lt;font style=&quot;vertical-align: inherit;&quot;&gt;&lt;font style=&quot;vertical-align: inherit;&quot;&gt;Du LBC et d&#39;un bailleur&amp;nbsp;  &lt;/font&gt;&lt;/font&gt;&lt;/font&gt;&lt;/font&gt;&lt;br&gt;&lt;font style=&quot;vertical-align: inherit;&quot;&gt;&lt;font style=&quot;vertical-align: inherit;&quot;&gt;&lt;font style=&quot;vertical-align: inherit;&quot;&gt;&lt;font style=&quot;vertical-align: inherit;&quot;&gt;social de la métropole volonté &lt;/font&gt;&lt;/font&gt;&lt;br&gt;&lt;font style=&quot;vertical-align: inherit;&quot;&gt;&lt;font style=&quot;vertical-align: inherit;&quot;&gt;d&#39;élargir l&#39;action et l&#39;impact&amp;nbsp;&lt;/font&gt;&lt;/font&gt;&lt;/font&gt;&lt;/font&gt;&lt;/font&gt;&lt;/font&gt;&lt;/font&gt;&lt;/font&gt;" style="rounded=1;fillColor=#f5af58;strokeColor=none;strokeWidth=3;shadow=0;html=1;fontColor=#FFFFFF;" parent="1" vertex="1">
          <mxGeometry x="842" y="220" width="159.5" height="51.5" as="geometry" />
        </mxCell>
        <mxCell id="1391" value="&lt;font style=&quot;vertical-align: inherit;&quot;&gt;&lt;font style=&quot;vertical-align: inherit;&quot;&gt;&lt;font style=&quot;vertical-align: inherit;&quot;&gt;&lt;font style=&quot;vertical-align: inherit;&quot;&gt;&lt;font style=&quot;vertical-align: inherit;&quot;&gt;&lt;font style=&quot;vertical-align: inherit;&quot;&gt;&lt;font style=&quot;vertical-align: inherit;&quot;&gt;&lt;font style=&quot;vertical-align: inherit;&quot;&gt;&lt;font style=&quot;vertical-align: inherit;&quot;&gt;&lt;font style=&quot;vertical-align: inherit;&quot;&gt;Coordo de la galerie zéro déchet &lt;/font&gt;&lt;/font&gt;&lt;br&gt;&lt;/font&gt;&lt;/font&gt;&lt;/font&gt;&lt;/font&gt;&lt;font style=&quot;vertical-align: inherit;&quot;&gt;&lt;font style=&quot;vertical-align: inherit;&quot;&gt;&lt;font style=&quot;vertical-align: inherit;&quot;&gt;&lt;font style=&quot;vertical-align: inherit;&quot;&gt;&lt;font style=&quot;vertical-align: inherit;&quot;&gt;&lt;font style=&quot;vertical-align: inherit;&quot;&gt;dont l&#39;ADN est de l&#39;&amp;nbsp;&lt;/font&gt;&lt;/font&gt;&lt;/font&gt;&lt;/font&gt;&lt;/font&gt;&lt;/font&gt;&lt;font style=&quot;vertical-align: inherit;&quot;&gt;&lt;font style=&quot;vertical-align: inherit;&quot;&gt;&lt;font style=&quot;vertical-align: inherit;&quot;&gt;&lt;font style=&quot;vertical-align: inherit;&quot;&gt; aire de coopérer&lt;/font&gt;&lt;/font&gt;&lt;/font&gt;&lt;/font&gt;&lt;br&gt;&lt;font style=&quot;vertical-align: inherit;&quot;&gt;&lt;font style=&quot;vertical-align: inherit;&quot;&gt;&lt;font style=&quot;vertical-align: inherit;&quot;&gt;&lt;font style=&quot;vertical-align: inherit;&quot;&gt;&lt;font style=&quot;vertical-align: inherit;&quot;&gt;&lt;font style=&quot;vertical-align: inherit;&quot;&gt; et faire voire les acteurs.c&lt;/font&gt;&lt;font style=&quot;vertical-align: inherit;&quot;&gt;es de la&lt;br&gt;&lt;/font&gt;&lt;/font&gt;&lt;/font&gt;&lt;/font&gt;&lt;/font&gt;&lt;/font&gt;&lt;font style=&quot;vertical-align: inherit;&quot;&gt;&lt;font style=&quot;vertical-align: inherit;&quot;&gt;transition autour d&#39;un lieu&lt;/font&gt;&lt;/font&gt;&lt;br&gt;&lt;/font&gt;&lt;/font&gt;&lt;/font&gt;&lt;/font&gt;" style="rounded=1;fillColor=#f5af58;strokeColor=none;strokeWidth=3;shadow=0;html=1;fontColor=#FFFFFF;" parent="1" vertex="1">
          <mxGeometry x="849" y="130" width="189.5" height="70" as="geometry" />
        </mxCell>
        <mxCell id="1392" value="&lt;font style=&quot;vertical-align: inherit;&quot;&gt;&lt;font style=&quot;vertical-align: inherit;&quot;&gt;L 214&lt;br&gt;Marche climat&lt;br&gt;-Télégram&lt;br&gt;&lt;/font&gt;&lt;/font&gt;" style="rounded=1;fillColor=#f5af58;strokeColor=none;strokeWidth=3;shadow=0;html=1;fontColor=#FFFFFF;" parent="1" vertex="1">
          <mxGeometry x="1000.5" y="81.5" width="120" height="40" as="geometry" />
        </mxCell>
        <mxCell id="1393" value="&lt;font style=&quot;vertical-align: inherit;&quot;&gt;&lt;font style=&quot;vertical-align: inherit;&quot;&gt;Justice climatique et&amp;nbsp;&lt;br&gt;sociale&lt;br&gt;&lt;/font&gt;&lt;/font&gt;" style="rounded=1;fillColor=#f5af58;strokeColor=none;strokeWidth=3;shadow=0;html=1;fontColor=#FFFFFF;" parent="1" vertex="1">
          <mxGeometry x="1139.5" y="81.5" width="120" height="40" as="geometry" />
        </mxCell>
        <mxCell id="1394" value="&lt;font style=&quot;vertical-align: inherit;&quot;&gt;&lt;font style=&quot;vertical-align: inherit;&quot;&gt;Changement d&#39;échelle&lt;br&gt;Faire un système&lt;br&gt;&lt;/font&gt;&lt;/font&gt;" style="rounded=1;fillColor=#f5af58;strokeColor=none;strokeWidth=3;shadow=0;html=1;fontColor=#FFFFFF;" parent="1" vertex="1">
          <mxGeometry x="1269" y="100" width="120" height="40" as="geometry" />
        </mxCell>
        <mxCell id="1395" value="&lt;font style=&quot;vertical-align: inherit;&quot;&gt;&lt;font style=&quot;vertical-align: inherit;&quot;&gt;&lt;font style=&quot;vertical-align: inherit;&quot;&gt;&lt;font style=&quot;vertical-align: inherit;&quot;&gt;&lt;font style=&quot;vertical-align: inherit;&quot;&gt;&lt;font style=&quot;vertical-align: inherit;&quot;&gt;Asso Monéko cocitoyenne &lt;/font&gt;&lt;/font&gt;&lt;br&gt;&lt;/font&gt;&lt;/font&gt;&lt;font style=&quot;vertical-align: inherit;&quot;&gt;&lt;font style=&quot;vertical-align: inherit;&quot;&gt;&lt;font style=&quot;vertical-align: inherit;&quot;&gt;&lt;font style=&quot;vertical-align: inherit;&quot;&gt;Volonté de bâtir en commun&lt;/font&gt;&lt;/font&gt;&lt;br&gt;&lt;font style=&quot;vertical-align: inherit;&quot;&gt;&lt;font style=&quot;vertical-align: inherit;&quot;&gt;&quot; Socialité pour aller dans un&lt;br&gt;&lt;/font&gt;&lt;/font&gt;&lt;/font&gt;&lt;/font&gt;&lt;font style=&quot;vertical-align: inherit;&quot;&gt;&lt;font style=&quot;vertical-align: inherit;&quot;&gt;même sens&lt;/font&gt;&lt;/font&gt;&lt;br&gt;&lt;br&gt;&lt;/font&gt;&lt;/font&gt;" style="rounded=1;fillColor=#f5af58;strokeColor=none;strokeWidth=3;shadow=0;html=1;fontColor=#FFFFFF;" parent="1" vertex="1">
          <mxGeometry x="1308.75" y="160" width="150.5" height="70" as="geometry" />
        </mxCell>
        <mxCell id="1396" value="&lt;font style=&quot;vertical-align: inherit;&quot;&gt;&lt;font style=&quot;vertical-align: inherit;&quot;&gt;&lt;font style=&quot;vertical-align: inherit;&quot;&gt;&lt;font style=&quot;vertical-align: inherit;&quot;&gt;&lt;font style=&quot;vertical-align: inherit;&quot;&gt;&lt;font style=&quot;vertical-align: inherit;&quot;&gt;&lt;font style=&quot;vertical-align: inherit;&quot;&gt;&lt;font style=&quot;vertical-align: inherit;&quot;&gt;&lt;font style=&quot;vertical-align: inherit;&quot;&gt;&lt;font style=&quot;vertical-align: inherit;&quot;&gt;je fais parti de plusieurs collectifs &lt;/font&gt;&lt;/font&gt;&lt;/font&gt;&lt;/font&gt;&lt;br&gt;&lt;font style=&quot;vertical-align: inherit;&quot;&gt;&lt;font style=&quot;vertical-align: inherit;&quot;&gt;&lt;font style=&quot;vertical-align: inherit;&quot;&gt;&lt;font style=&quot;vertical-align: inherit;&quot;&gt;qui activent à la transition écologique &lt;/font&gt;&lt;/font&gt;&lt;br&gt;&lt;/font&gt;&lt;/font&gt;&lt;font style=&quot;vertical-align: inherit;&quot;&gt;&lt;font style=&quot;vertical-align: inherit;&quot;&gt;&lt;font style=&quot;vertical-align: inherit;&quot;&gt;&lt;font style=&quot;vertical-align: inherit;&quot;&gt;et sociale à Nantes(LBC, Greenpeace, &lt;/font&gt;&lt;/font&gt;&lt;br&gt;&lt;font style=&quot;vertical-align: inherit;&quot;&gt;&lt;font style=&quot;vertical-align: inherit;&quot;&gt;Nous &amp;amp; co) j&#39;aspire à un échange entre&lt;br&gt;&lt;/font&gt;&lt;/font&gt;&lt;/font&gt;&lt;/font&gt;&lt;font style=&quot;vertical-align: inherit;&quot;&gt;&lt;font style=&quot;vertical-align: inherit;&quot;&gt;ces orga, les citoyens pour accélérer&lt;br&gt;&lt;/font&gt;&lt;/font&gt;la transition&lt;br&gt;&lt;/font&gt;&lt;/font&gt;&lt;/font&gt;&lt;/font&gt;&lt;/font&gt;&lt;/font&gt;" style="rounded=1;fillColor=#f5af58;strokeColor=none;strokeWidth=3;shadow=0;html=1;fontColor=#FFFFFF;" parent="1" vertex="1">
          <mxGeometry x="1308.75" y="250" width="201.25" height="90" as="geometry" />
        </mxCell>
        <mxCell id="1397" value="Mon intérêt pour les&amp;nbsp;&lt;br&gt;coopération entre ateurs" style="rounded=1;fillColor=#f5af58;strokeColor=none;strokeWidth=3;shadow=0;html=1;fontColor=#FFFFFF;" parent="1" vertex="1">
          <mxGeometry x="1280" y="350.5" width="140" height="40" as="geometry" />
        </mxCell>
        <mxCell id="1398" value="Alternatiba&lt;br&gt;Transiscop" style="rounded=1;fillColor=#f5af58;strokeColor=none;strokeWidth=3;shadow=0;html=1;fontColor=#FFFFFF;" parent="1" vertex="1">
          <mxGeometry x="1214.5" y="401.5" width="120" height="40" as="geometry" />
        </mxCell>
        <mxCell id="1399" value="" style="edgeStyle=none;endArrow=none;strokeWidth=3;strokeColor=#F5AF58;html=1;" parent="1" source="1351" target="1357" edge="1">
          <mxGeometry x="-20.5" y="21.5" width="100" height="100" as="geometry">
            <mxPoint x="-20.5" y="121.5" as="sourcePoint" />
            <mxPoint x="79.5" y="21.5" as="targetPoint" />
          </mxGeometry>
        </mxCell>
        <mxCell id="1400" value="" style="edgeStyle=none;endArrow=none;strokeWidth=3;strokeColor=#F5AF58;html=1;entryX=1;entryY=0.5;entryDx=0;entryDy=0;" parent="1" source="1351" target="1388" edge="1">
          <mxGeometry x="-20.5" y="21.5" width="100" height="100" as="geometry">
            <mxPoint x="-20.5" y="121.5" as="sourcePoint" />
            <mxPoint x="79.5" y="21.5" as="targetPoint" />
          </mxGeometry>
        </mxCell>
        <mxCell id="1401" value="" style="edgeStyle=none;endArrow=none;strokeWidth=3;strokeColor=#F5AF58;html=1;" parent="1" source="1351" target="1389" edge="1">
          <mxGeometry x="-20.5" y="21.5" width="100" height="100" as="geometry">
            <mxPoint x="-20.5" y="121.5" as="sourcePoint" />
            <mxPoint x="79.5" y="21.5" as="targetPoint" />
          </mxGeometry>
        </mxCell>
        <mxCell id="1402" value="" style="edgeStyle=none;endArrow=none;strokeWidth=3;strokeColor=#F5AF58;html=1;" parent="1" source="1351" target="1390" edge="1">
          <mxGeometry x="-20.5" y="21.5" width="100" height="100" as="geometry">
            <mxPoint x="-20.5" y="121.5" as="sourcePoint" />
            <mxPoint x="79.5" y="21.5" as="targetPoint" />
          </mxGeometry>
        </mxCell>
        <mxCell id="1403" value="" style="edgeStyle=none;endArrow=none;strokeWidth=3;strokeColor=#F5AF58;html=1;" parent="1" source="1351" target="1391" edge="1">
          <mxGeometry x="-20.5" y="21.5" width="100" height="100" as="geometry">
            <mxPoint x="-20.5" y="121.5" as="sourcePoint" />
            <mxPoint x="79.5" y="21.5" as="targetPoint" />
          </mxGeometry>
        </mxCell>
        <mxCell id="1404" value="" style="edgeStyle=none;endArrow=none;strokeWidth=3;strokeColor=#F5AF58;html=1;" parent="1" source="1351" target="1392" edge="1">
          <mxGeometry x="-20.5" y="21.5" width="100" height="100" as="geometry">
            <mxPoint x="-20.5" y="121.5" as="sourcePoint" />
            <mxPoint x="79.5" y="21.5" as="targetPoint" />
          </mxGeometry>
        </mxCell>
        <mxCell id="1405" value="" style="edgeStyle=none;endArrow=none;strokeWidth=3;strokeColor=#F5AF58;html=1;" parent="1" source="1351" target="1393" edge="1">
          <mxGeometry x="-20.5" y="21.5" width="100" height="100" as="geometry">
            <mxPoint x="-20.5" y="121.5" as="sourcePoint" />
            <mxPoint x="79.5" y="21.5" as="targetPoint" />
          </mxGeometry>
        </mxCell>
        <mxCell id="1406" value="" style="edgeStyle=none;endArrow=none;strokeWidth=3;strokeColor=#F5AF58;html=1;" parent="1" source="1351" target="1394" edge="1">
          <mxGeometry x="-20.5" y="21.5" width="100" height="100" as="geometry">
            <mxPoint x="-20.5" y="121.5" as="sourcePoint" />
            <mxPoint x="79.5" y="21.5" as="targetPoint" />
          </mxGeometry>
        </mxCell>
        <mxCell id="1407" value="" style="edgeStyle=none;endArrow=none;strokeWidth=3;strokeColor=#F5AF58;html=1;" parent="1" source="1351" target="1395" edge="1">
          <mxGeometry x="-20.5" y="21.5" width="100" height="100" as="geometry">
            <mxPoint x="-20.5" y="121.5" as="sourcePoint" />
            <mxPoint x="79.5" y="21.5" as="targetPoint" />
          </mxGeometry>
        </mxCell>
        <mxCell id="1408" value="" style="edgeStyle=none;endArrow=none;strokeWidth=3;strokeColor=#F5AF58;html=1;" parent="1" source="1351" target="1396" edge="1">
          <mxGeometry x="-20.5" y="21.5" width="100" height="100" as="geometry">
            <mxPoint x="-20.5" y="121.5" as="sourcePoint" />
            <mxPoint x="79.5" y="21.5" as="targetPoint" />
          </mxGeometry>
        </mxCell>
        <mxCell id="1409" value="" style="edgeStyle=none;endArrow=none;strokeWidth=3;strokeColor=#F5AF58;html=1;" parent="1" source="1351" edge="1">
          <mxGeometry x="-20.5" y="21.5" width="100" height="100" as="geometry">
            <mxPoint x="-20.5" y="121.5" as="sourcePoint" />
            <mxPoint x="1290" y="370" as="targetPoint" />
          </mxGeometry>
        </mxCell>
        <mxCell id="1410" value="" style="edgeStyle=none;endArrow=none;strokeWidth=3;strokeColor=#F5AF58;html=1;" parent="1" source="1351" target="1398" edge="1">
          <mxGeometry x="-20.5" y="21.5" width="100" height="100" as="geometry">
            <mxPoint x="-20.5" y="121.5" as="sourcePoint" />
            <mxPoint x="79.5" y="21.5" as="targetPoint" />
          </mxGeometry>
        </mxCell>
        <mxCell id="1411" value="Ecoute et intérêt pour&amp;nbsp;&lt;br&gt;projet" style="rounded=1;fillColor=#f08e81;strokeColor=none;strokeWidth=3;shadow=0;html=1;fontColor=#FFFFFF;" parent="1" vertex="1">
          <mxGeometry x="1611" y="655.5" width="120" height="40" as="geometry" />
        </mxCell>
        <mxCell id="1412" value="Rendre accessible à tous&lt;br&gt;mode vie noble locale&amp;nbsp;&lt;br&gt;résiliente/préservation des&amp;nbsp;&lt;br&gt;ressources solidaire&amp;nbsp;&amp;nbsp;" style="rounded=1;fillColor=#f08e81;strokeColor=none;strokeWidth=3;shadow=0;html=1;fontColor=#FFFFFF;" parent="1" vertex="1">
          <mxGeometry x="1946" y="530" width="164" height="60" as="geometry" />
        </mxCell>
        <mxCell id="1413" value="Créer un maillage territorial&lt;br&gt;dense et riche pour proposer&lt;br&gt;le plus d&#39;alternatives possible&lt;br&gt;dans la joie et la coop&amp;nbsp;&lt;br&gt;" style="rounded=1;fillColor=#f08e81;strokeColor=none;strokeWidth=3;shadow=0;html=1;fontColor=#FFFFFF;" parent="1" vertex="1">
          <mxGeometry x="1450" y="560" width="161" height="60" as="geometry" />
        </mxCell>
        <mxCell id="1414" value="&amp;nbsp;Coopération&lt;br&gt;Hab----Ppublic---Alter" style="rounded=1;fillColor=#f08e81;strokeColor=none;strokeWidth=3;shadow=0;html=1;fontColor=#FFFFFF;" parent="1" vertex="1">
          <mxGeometry x="1521" y="510.5" width="120" height="40" as="geometry" />
        </mxCell>
        <mxCell id="1415" value="Greenville&lt;br&gt;Synergie, Durabilité&lt;br&gt;justice" style="rounded=1;fillColor=#f08e81;strokeColor=none;strokeWidth=3;shadow=0;html=1;fontColor=#FFFFFF;" parent="1" vertex="1">
          <mxGeometry x="1541" y="430.5" width="120" height="40" as="geometry" />
        </mxCell>
        <mxCell id="1416" value="Faire/connaitre, émerger les&lt;br&gt;bons moyens à mettre en &lt;br&gt;œuvre pour atteindre les&amp;nbsp;&lt;br&gt;objectifs fixés&amp;nbsp;" style="rounded=1;fillColor=#f08e81;strokeColor=none;strokeWidth=3;shadow=0;html=1;fontColor=#FFFFFF;" parent="1" vertex="1">
          <mxGeometry x="1620" y="350" width="160" height="50" as="geometry" />
        </mxCell>
        <mxCell id="1417" value="Vers une cohésion, une mutualisation&lt;br&gt;des moyens et des actions entre les orga&lt;br&gt;pour avancer, aller plus loin et plus vite" style="rounded=1;fillColor=#f08e81;strokeColor=none;strokeWidth=3;shadow=0;html=1;fontColor=#FFFFFF;" parent="1" vertex="1">
          <mxGeometry x="1766" y="300" width="214" height="45.5" as="geometry" />
        </mxCell>
        <mxCell id="1418" value="Prise de conscience&lt;br&gt;citoyenne, co-construction&lt;br&gt;participative, baromètre" style="rounded=1;fillColor=#f08e81;strokeColor=none;strokeWidth=3;shadow=0;html=1;fontColor=#FFFFFF;" parent="1" vertex="1">
          <mxGeometry x="1861" y="370" width="139" height="60.5" as="geometry" />
        </mxCell>
        <mxCell id="1419" value="Accélérer la transition&amp;nbsp;&lt;br&gt;Trop coincé aujourd&#39;hui" style="rounded=1;fillColor=#f08e81;strokeColor=none;strokeWidth=3;shadow=0;html=1;fontColor=#FFFFFF;" parent="1" vertex="1">
          <mxGeometry x="1916" y="460.5" width="134" height="49.5" as="geometry" />
        </mxCell>
        <mxCell id="1420" value="&amp;nbsp; &amp;nbsp; &amp;nbsp; &amp;nbsp; &amp;nbsp; &amp;nbsp; &amp;nbsp; &amp;nbsp; &amp;nbsp; &amp;nbsp; &amp;nbsp; Faire ensemble, trouver&amp;nbsp; &amp;nbsp; &amp;nbsp; &amp;nbsp; &amp;nbsp; &amp;nbsp; &amp;nbsp; &amp;nbsp; &amp;nbsp; &amp;nbsp; &amp;nbsp; &amp;nbsp; &amp;nbsp;&lt;br&gt;s&#39;accorder/s&#39;accorder sur&amp;nbsp;&lt;br&gt;un Og commun essayer&lt;br&gt;de faire autrement&amp;nbsp;" style="rounded=1;fillColor=#f08e81;strokeColor=none;strokeWidth=3;shadow=0;html=1;fontColor=#FFFFFF;" parent="1" vertex="1">
          <mxGeometry x="1691" y="715.5" width="139" height="54.5" as="geometry" />
        </mxCell>
        <mxCell id="1421" value="Mise en réseau de très&lt;br&gt;nombreux acteurs de transition&amp;nbsp;&lt;br&gt;sur le territoire Nantais &lt;br&gt;Ensemble on va plus loin&amp;nbsp;" style="rounded=1;fillColor=#f08e81;strokeColor=none;strokeWidth=3;shadow=0;html=1;fontColor=#FFFFFF;" parent="1" vertex="1">
          <mxGeometry x="1781" y="645.5" width="169" height="64.5" as="geometry" />
        </mxCell>
        <mxCell id="1422" value="Un monde plus apaisé&lt;br&gt;pour humains, et&lt;br&gt;un humain" style="rounded=1;fillColor=#f08e81;strokeColor=none;strokeWidth=3;shadow=0;html=1;fontColor=#FFFFFF;" parent="1" vertex="1">
          <mxGeometry x="1886" y="597.5" width="120" height="40" as="geometry" />
        </mxCell>
        <mxCell id="1423" value="" style="edgeStyle=none;endArrow=none;strokeWidth=3;strokeColor=#F08E81;html=1;" parent="1" source="1352" target="1411" edge="1">
          <mxGeometry x="31" y="245.5" width="100" height="100" as="geometry">
            <mxPoint x="31" y="345.5" as="sourcePoint" />
            <mxPoint x="131" y="245.5" as="targetPoint" />
          </mxGeometry>
        </mxCell>
        <mxCell id="1424" value="" style="edgeStyle=none;endArrow=none;strokeWidth=3;strokeColor=#F08E81;html=1;" parent="1" source="1352" target="1413" edge="1">
          <mxGeometry x="31" y="245.5" width="100" height="100" as="geometry">
            <mxPoint x="31" y="345.5" as="sourcePoint" />
            <mxPoint x="131" y="245.5" as="targetPoint" />
          </mxGeometry>
        </mxCell>
        <mxCell id="1425" value="" style="edgeStyle=none;endArrow=none;strokeWidth=3;strokeColor=#F08E81;html=1;" parent="1" source="1352" target="1414" edge="1">
          <mxGeometry x="31" y="245.5" width="100" height="100" as="geometry">
            <mxPoint x="31" y="345.5" as="sourcePoint" />
            <mxPoint x="131" y="245.5" as="targetPoint" />
          </mxGeometry>
        </mxCell>
        <mxCell id="1426" value="" style="edgeStyle=none;endArrow=none;strokeWidth=3;strokeColor=#F08E81;html=1;" parent="1" source="1352" target="1415" edge="1">
          <mxGeometry x="31" y="245.5" width="100" height="100" as="geometry">
            <mxPoint x="31" y="345.5" as="sourcePoint" />
            <mxPoint x="131" y="245.5" as="targetPoint" />
          </mxGeometry>
        </mxCell>
        <mxCell id="1427" value="" style="edgeStyle=none;endArrow=none;strokeWidth=3;strokeColor=#F08E81;html=1;" parent="1" source="1352" target="1416" edge="1">
          <mxGeometry x="31" y="245.5" width="100" height="100" as="geometry">
            <mxPoint x="31" y="345.5" as="sourcePoint" />
            <mxPoint x="131" y="245.5" as="targetPoint" />
          </mxGeometry>
        </mxCell>
        <mxCell id="1428" value="" style="edgeStyle=none;endArrow=none;strokeWidth=3;strokeColor=#F08E81;html=1;" parent="1" source="1352" target="1417" edge="1">
          <mxGeometry x="31" y="245.5" width="100" height="100" as="geometry">
            <mxPoint x="31" y="345.5" as="sourcePoint" />
            <mxPoint x="131" y="245.5" as="targetPoint" />
          </mxGeometry>
        </mxCell>
        <mxCell id="1429" value="" style="edgeStyle=none;endArrow=none;strokeWidth=3;strokeColor=#F08E81;html=1;" parent="1" source="1352" target="1418" edge="1">
          <mxGeometry x="31" y="245.5" width="100" height="100" as="geometry">
            <mxPoint x="31" y="345.5" as="sourcePoint" />
            <mxPoint x="131" y="245.5" as="targetPoint" />
          </mxGeometry>
        </mxCell>
        <mxCell id="1430" value="" style="edgeStyle=none;endArrow=none;strokeWidth=3;strokeColor=#F08E81;html=1;entryX=0;entryY=0.5;entryDx=0;entryDy=0;" parent="1" source="1352" target="1419" edge="1">
          <mxGeometry x="31" y="245.5" width="100" height="100" as="geometry">
            <mxPoint x="31" y="345.5" as="sourcePoint" />
            <mxPoint x="131" y="245.5" as="targetPoint" />
          </mxGeometry>
        </mxCell>
        <mxCell id="1431" value="" style="edgeStyle=none;endArrow=none;strokeWidth=3;strokeColor=#F08E81;html=1;" parent="1" source="1352" target="1412" edge="1">
          <mxGeometry x="31" y="245.5" width="100" height="100" as="geometry">
            <mxPoint x="31" y="345.5" as="sourcePoint" />
            <mxPoint x="131" y="245.5" as="targetPoint" />
          </mxGeometry>
        </mxCell>
        <mxCell id="1432" value="" style="edgeStyle=none;endArrow=none;strokeWidth=3;strokeColor=#F08E81;html=1;" parent="1" source="1352" target="1422" edge="1">
          <mxGeometry x="31" y="245.5" width="100" height="100" as="geometry">
            <mxPoint x="31" y="345.5" as="sourcePoint" />
            <mxPoint x="131" y="245.5" as="targetPoint" />
          </mxGeometry>
        </mxCell>
        <mxCell id="1433" value="" style="edgeStyle=none;endArrow=none;strokeWidth=3;strokeColor=#F08E81;html=1;" parent="1" source="1352" target="1421" edge="1">
          <mxGeometry x="31" y="245.5" width="100" height="100" as="geometry">
            <mxPoint x="31" y="345.5" as="sourcePoint" />
            <mxPoint x="131" y="245.5" as="targetPoint" />
          </mxGeometry>
        </mxCell>
        <mxCell id="1434" value="" style="edgeStyle=none;endArrow=none;strokeWidth=3;strokeColor=#F08E81;html=1;" parent="1" source="1352" target="1420" edge="1">
          <mxGeometry x="31" y="245.5" width="100" height="100" as="geometry">
            <mxPoint x="31" y="345.5" as="sourcePoint" />
            <mxPoint x="131" y="245.5" as="targetPoint" />
          </mxGeometry>
        </mxCell>
        <mxCell id="1457" value="Les bonnes volontés" style="rounded=1;fillColor=#a29dc5;strokeColor=none;strokeWidth=3;shadow=0;html=1;fontColor=#FFFFFF;" parent="1" vertex="1">
          <mxGeometry x="1813" y="850" width="120" height="40" as="geometry" />
        </mxCell>
        <mxCell id="1458" value="Elus, citoyens, élargissement &lt;br&gt;du public, entreprise?(orga&lt;br&gt;syndicales, grand défis" style="rounded=1;fillColor=#a29dc5;strokeColor=none;strokeWidth=3;shadow=0;html=1;fontColor=#FFFFFF;" parent="1" vertex="1">
          <mxGeometry x="1630" y="1156" width="160" height="50" as="geometry" />
        </mxCell>
        <mxCell id="1459" value="Humains préoccupés et&amp;nbsp;&lt;br&gt;occupés par l&#39;avenir, construire&lt;br&gt;un monde/Nantes soutenable" style="rounded=1;fillColor=#a29dc5;strokeColor=none;strokeWidth=3;shadow=0;html=1;fontColor=#FFFFFF;" parent="1" vertex="1">
          <mxGeometry x="1880" y="963.5" width="170" height="46.5" as="geometry" />
        </mxCell>
        <mxCell id="1460" value="Avec des organisations et des&amp;nbsp;&lt;br&gt;citoyens qui ont envie d&#39;agir au&lt;br&gt;niveau local, de construire d&#39;élu&lt;br&gt;dans une démarche positive" style="rounded=1;fillColor=#a29dc5;strokeColor=none;strokeWidth=3;shadow=0;html=1;fontColor=#FFFFFF;" parent="1" vertex="1">
          <mxGeometry x="1893" y="1033.5" width="180" height="70" as="geometry" />
        </mxCell>
        <mxCell id="1461" value="Toutes Asso partageant les&lt;br&gt;mêmes objectifs&amp;nbsp;" style="rounded=1;fillColor=#a29dc5;strokeColor=none;strokeWidth=3;shadow=0;html=1;fontColor=#FFFFFF;" parent="1" vertex="1">
          <mxGeometry x="1823" y="1123" width="157" height="50" as="geometry" />
        </mxCell>
        <mxCell id="1462" value="Collectivités, habitants&lt;br&gt;membres d&#39;asso&lt;br&gt;diverse" style="rounded=1;fillColor=#a29dc5;strokeColor=none;strokeWidth=3;shadow=0;html=1;fontColor=#FFFFFF;" parent="1" vertex="1">
          <mxGeometry x="1491" y="1138.5" width="120" height="40" as="geometry" />
        </mxCell>
        <mxCell id="1463" value="" style="edgeStyle=none;endArrow=none;strokeWidth=3;strokeColor=#A29DC5;html=1;" parent="1" source="1354" target="1460" edge="1">
          <mxGeometry x="241" y="-253.5" width="100" height="100" as="geometry">
            <mxPoint x="241" y="-153.5" as="sourcePoint" />
            <mxPoint x="1891" y="1069.5263157894738" as="targetPoint" />
          </mxGeometry>
        </mxCell>
        <mxCell id="1464" value="" style="edgeStyle=none;endArrow=none;strokeWidth=3;strokeColor=#A29DC5;html=1;" parent="1" source="1354" target="1461" edge="1">
          <mxGeometry x="241" y="-253.5" width="100" height="100" as="geometry">
            <mxPoint x="241" y="-153.5" as="sourcePoint" />
            <mxPoint x="341" y="-253.5" as="targetPoint" />
          </mxGeometry>
        </mxCell>
        <mxCell id="1465" value="" style="edgeStyle=none;endArrow=none;strokeWidth=3;strokeColor=#A29DC5;html=1;entryX=0.5;entryY=0;entryDx=0;entryDy=0;" parent="1" source="1354" target="1458" edge="1">
          <mxGeometry x="241" y="-253.5" width="100" height="100" as="geometry">
            <mxPoint x="241" y="-153.5" as="sourcePoint" />
            <mxPoint x="341" y="-253.5" as="targetPoint" />
          </mxGeometry>
        </mxCell>
        <mxCell id="1466" value="" style="edgeStyle=none;endArrow=none;strokeWidth=3;strokeColor=#A29DC5;html=1;" parent="1" source="1354" target="1462" edge="1">
          <mxGeometry x="241" y="-253.5" width="100" height="100" as="geometry">
            <mxPoint x="241" y="-153.5" as="sourcePoint" />
            <mxPoint x="1661" y="1081.5" as="targetPoint" />
          </mxGeometry>
        </mxCell>
        <mxCell id="1467" value="" style="edgeStyle=none;endArrow=none;strokeWidth=3;strokeColor=#A29DC5;html=1;" parent="1" source="1354" target="1457" edge="1">
          <mxGeometry x="241" y="-253.5" width="100" height="100" as="geometry">
            <mxPoint x="241" y="-153.5" as="sourcePoint" />
            <mxPoint x="341" y="-253.5" as="targetPoint" />
          </mxGeometry>
        </mxCell>
        <mxCell id="1490" value="" style="rounded=1;fillColor=#f08e81;strokeColor=none;strokeWidth=3;shadow=0;html=1;fontColor=#FFFFFF;" parent="1" vertex="1">
          <mxGeometry x="520" y="903.5" width="120" height="40" as="geometry" />
        </mxCell>
        <mxCell id="1491" value="" style="rounded=1;fillColor=#f08e81;strokeColor=none;strokeWidth=3;shadow=0;html=1;fontColor=#FFFFFF;" parent="1" vertex="1">
          <mxGeometry x="376.5" y="903.5" width="120" height="40" as="geometry" />
        </mxCell>
        <mxCell id="1492" value="Inaction politique institution&lt;br&gt;Manque de temps et d&#39;Energie&lt;br&gt;des collectifs&amp;nbsp;" style="rounded=1;fillColor=#f08e81;strokeColor=none;strokeWidth=3;shadow=0;html=1;fontColor=#FFFFFF;" parent="1" vertex="1">
          <mxGeometry x="280" y="963.5" width="165.5" height="46.5" as="geometry" />
        </mxCell>
        <mxCell id="1493" value="Business&lt;br&gt;L&#39;Ignorance&lt;br&gt;L&#39;Indifférence" style="rounded=1;fillColor=#f08e81;strokeColor=none;strokeWidth=3;shadow=0;html=1;fontColor=#FFFFFF;" parent="1" vertex="1">
          <mxGeometry x="270.5" y="1021.5" width="120" height="40" as="geometry" />
        </mxCell>
        <mxCell id="1494" value="Volonté d&#39;évolution&amp;nbsp;&lt;br&gt;Changer ces habitudes" style="rounded=1;fillColor=#f08e81;strokeColor=none;strokeWidth=3;shadow=0;html=1;fontColor=#FFFFFF;" parent="1" vertex="1">
          <mxGeometry x="250.5" y="1078.5" width="120" height="40" as="geometry" />
        </mxCell>
        <mxCell id="1495" value="Trop de tête de pont et&lt;br&gt;trop de temps passé à&lt;br&gt;suivre qui le fait le mieux&lt;br&gt;pas de sous" style="rounded=1;fillColor=#f08e81;strokeColor=none;strokeWidth=3;shadow=0;html=1;fontColor=#FFFFFF;" parent="1" vertex="1">
          <mxGeometry x="250" y="1130" width="135.5" height="60" as="geometry" />
        </mxCell>
        <mxCell id="1496" value="Pas d&#39;engagement&amp;nbsp;&lt;br&gt;Pas d&#39;unité" style="rounded=1;fillColor=#f08e81;strokeColor=none;strokeWidth=3;shadow=0;html=1;fontColor=#FFFFFF;" parent="1" vertex="1">
          <mxGeometry x="300.5" y="1206" width="120" height="40" as="geometry" />
        </mxCell>
        <mxCell id="1497" value="Financement&lt;br&gt;Epuisement militants" style="rounded=1;fillColor=#f08e81;strokeColor=none;strokeWidth=3;shadow=0;html=1;fontColor=#FFFFFF;" parent="1" vertex="1">
          <mxGeometry x="370.5" y="1256" width="120" height="40" as="geometry" />
        </mxCell>
        <mxCell id="1498" value="Accès aux données/moyens&lt;br&gt;sortir du cercle des engagés&lt;br&gt;/convaincre, Intérêt divergent" style="rounded=1;fillColor=#f08e81;strokeColor=none;strokeWidth=3;shadow=0;html=1;fontColor=#FFFFFF;" parent="1" vertex="1">
          <mxGeometry x="480.5" y="1311" width="159.5" height="40" as="geometry" />
        </mxCell>
        <mxCell id="1499" value="Le temps de chacun&lt;br&gt;Les intérêts individuels" style="rounded=1;fillColor=#f08e81;strokeColor=none;strokeWidth=3;shadow=0;html=1;fontColor=#FFFFFF;" parent="1" vertex="1">
          <mxGeometry x="605.5" y="1246" width="120" height="40" as="geometry" />
        </mxCell>
        <mxCell id="1500" value="Temps/Échéance&lt;br&gt;différentes ambitions&lt;br&gt;Le flou/ L&#39;exp" style="rounded=1;fillColor=#f08e81;strokeColor=none;strokeWidth=3;shadow=0;html=1;fontColor=#FFFFFF;" parent="1" vertex="1">
          <mxGeometry x="665.5" y="1178.5" width="120" height="40" as="geometry" />
        </mxCell>
        <mxCell id="1501" value="La complexité du dispositif&lt;br&gt;diversité des acteurs&lt;br&gt;dispersion de l&#39;information&amp;nbsp;" style="rounded=1;fillColor=#f08e81;strokeColor=none;strokeWidth=3;shadow=0;html=1;fontColor=#FFFFFF;" parent="1" vertex="1">
          <mxGeometry x="685.5" y="1083" width="154.5" height="47" as="geometry" />
        </mxCell>
        <mxCell id="1502" value="" style="edgeStyle=none;endArrow=none;strokeWidth=3;strokeColor=#F08E81;html=1;" parent="1" source="1356" target="1501" edge="1">
          <mxGeometry x="90.5" y="-51.5" width="100" height="100" as="geometry">
            <mxPoint x="90.5" y="48.5" as="sourcePoint" />
            <mxPoint x="190.5" y="-51.5" as="targetPoint" />
          </mxGeometry>
        </mxCell>
        <mxCell id="1503" value="" style="edgeStyle=none;endArrow=none;strokeWidth=3;strokeColor=#F08E81;html=1;entryX=0.67;entryY=0.983;entryDx=0;entryDy=0;entryPerimeter=0;" parent="1" source="1356" target="1490" edge="1">
          <mxGeometry x="90.5" y="-51.5" width="100" height="100" as="geometry">
            <mxPoint x="90.5" y="48.5" as="sourcePoint" />
            <mxPoint x="579.1585365853653" y="943.5" as="targetPoint" />
          </mxGeometry>
        </mxCell>
        <mxCell id="1504" value="" style="edgeStyle=none;endArrow=none;strokeWidth=3;strokeColor=#F08E81;html=1;" parent="1" source="1356" target="1491" edge="1">
          <mxGeometry x="90.5" y="-51.5" width="100" height="100" as="geometry">
            <mxPoint x="90.5" y="48.5" as="sourcePoint" />
            <mxPoint x="457.50000000000045" y="948.5" as="targetPoint" />
          </mxGeometry>
        </mxCell>
        <mxCell id="1505" value="" style="edgeStyle=none;endArrow=none;strokeWidth=3;strokeColor=#F08E81;html=1;" parent="1" source="1356" target="1492" edge="1">
          <mxGeometry x="90.5" y="-51.5" width="100" height="100" as="geometry">
            <mxPoint x="90.5" y="48.5" as="sourcePoint" />
            <mxPoint x="190.5" y="-51.5" as="targetPoint" />
          </mxGeometry>
        </mxCell>
        <mxCell id="1506" value="" style="edgeStyle=none;endArrow=none;strokeWidth=3;strokeColor=#F08E81;html=1;" parent="1" source="1356" target="1493" edge="1">
          <mxGeometry x="90.5" y="-51.5" width="100" height="100" as="geometry">
            <mxPoint x="90.5" y="48.5" as="sourcePoint" />
            <mxPoint x="190.5" y="-51.5" as="targetPoint" />
          </mxGeometry>
        </mxCell>
        <mxCell id="1507" value="" style="edgeStyle=none;endArrow=none;strokeWidth=3;strokeColor=#F08E81;html=1;" parent="1" source="1356" target="1494" edge="1">
          <mxGeometry x="90.5" y="-51.5" width="100" height="100" as="geometry">
            <mxPoint x="90.5" y="48.5" as="sourcePoint" />
            <mxPoint x="190.5" y="-51.5" as="targetPoint" />
          </mxGeometry>
        </mxCell>
        <mxCell id="1508" value="" style="edgeStyle=none;endArrow=none;strokeWidth=3;strokeColor=#F08E81;html=1;" parent="1" source="1356" target="1495" edge="1">
          <mxGeometry x="90.5" y="-51.5" width="100" height="100" as="geometry">
            <mxPoint x="90.5" y="48.5" as="sourcePoint" />
            <mxPoint x="190.5" y="-51.5" as="targetPoint" />
          </mxGeometry>
        </mxCell>
        <mxCell id="1509" value="" style="edgeStyle=none;endArrow=none;strokeWidth=3;strokeColor=#F08E81;html=1;" parent="1" source="1356" target="1496" edge="1">
          <mxGeometry x="90.5" y="-51.5" width="100" height="100" as="geometry">
            <mxPoint x="90.5" y="48.5" as="sourcePoint" />
            <mxPoint x="190.5" y="-51.5" as="targetPoint" />
          </mxGeometry>
        </mxCell>
        <mxCell id="1510" value="" style="edgeStyle=none;endArrow=none;strokeWidth=3;strokeColor=#F08E81;html=1;" parent="1" source="1356" target="1497" edge="1">
          <mxGeometry x="90.5" y="-51.5" width="100" height="100" as="geometry">
            <mxPoint x="90.5" y="48.5" as="sourcePoint" />
            <mxPoint x="190.5" y="-51.5" as="targetPoint" />
          </mxGeometry>
        </mxCell>
        <mxCell id="1511" value="" style="edgeStyle=none;endArrow=none;strokeWidth=3;strokeColor=#F08E81;html=1;" parent="1" source="1356" target="1498" edge="1">
          <mxGeometry x="90.5" y="-51.5" width="100" height="100" as="geometry">
            <mxPoint x="90.5" y="48.5" as="sourcePoint" />
            <mxPoint x="190.5" y="-51.5" as="targetPoint" />
          </mxGeometry>
        </mxCell>
        <mxCell id="1512" value="" style="edgeStyle=none;endArrow=none;strokeWidth=3;strokeColor=#F08E81;html=1;" parent="1" source="1356" target="1499" edge="1">
          <mxGeometry x="90.5" y="-51.5" width="100" height="100" as="geometry">
            <mxPoint x="90.5" y="48.5" as="sourcePoint" />
            <mxPoint x="190.5" y="-51.5" as="targetPoint" />
          </mxGeometry>
        </mxCell>
        <mxCell id="1513" value="" style="edgeStyle=none;endArrow=none;strokeWidth=3;strokeColor=#F08E81;html=1;" parent="1" source="1356" target="1500" edge="1">
          <mxGeometry x="90.5" y="-51.5" width="100" height="100" as="geometry">
            <mxPoint x="90.5" y="48.5" as="sourcePoint" />
            <mxPoint x="190.5" y="-51.5" as="targetPoint" />
          </mxGeometry>
        </mxCell>
        <mxCell id="1514" style="edgeStyle=orthogonalEdgeStyle;rounded=0;html=1;exitX=0.75;exitY=0;entryX=0.75;entryY=0;startArrow=none;startFill=0;endArrow=block;endFill=1;jettySize=auto;orthogonalLoop=1;strokeColor=#12aab5;strokeWidth=6;fontSize=20;fontColor=#2F5B7C;" parent="1" source="1414" target="1414" edge="1">
          <mxGeometry relative="1" as="geometry" />
        </mxCell>
        <mxCell id="1541" value="" style="edgeStyle=none;endArrow=none;strokeWidth=3;strokeColor=#A29DC5;html=1;" parent="1" source="1354" target="1459" edge="1">
          <mxGeometry x="-1184" y="-558.5" width="100" height="100" as="geometry">
            <mxPoint x="-1184" y="-458.5" as="sourcePoint" />
            <mxPoint x="-1084" y="-558.5" as="targetPoint" />
          </mxGeometry>
        </mxCell>
        <mxCell id="HgUclgAVwhv4iRQHbnZD-1551" value="&lt;font style=&quot;font-size: 12px;&quot;&gt;&lt;font style=&quot;vertical-align: inherit;&quot;&gt;&lt;font style=&quot;vertical-align: inherit;&quot;&gt;&lt;font style=&quot;vertical-align: inherit;&quot;&gt;&lt;font style=&quot;vertical-align: inherit;&quot;&gt;Quels sont les &lt;/font&gt;&lt;/font&gt;&lt;br&gt;&lt;font style=&quot;vertical-align: inherit;&quot;&gt;&lt;font style=&quot;vertical-align: inherit;&quot;&gt;moteurs du projet selon&amp;nbsp;&lt;/font&gt;&lt;/font&gt;&lt;font style=&quot;vertical-align: inherit;&quot;&gt;&lt;font style=&quot;vertical-align: inherit;&quot;&gt;moi&lt;/font&gt;&lt;/font&gt;&lt;br&gt;&lt;/font&gt;&lt;/font&gt;&lt;/font&gt;" style="ellipse;whiteSpace=wrap;html=1;shadow=0;fontFamily=Helvetica;fontSize=20;fontColor=#FFFFFF;align=center;strokeWidth=3;fillColor=#E85642;strokeColor=none;" parent="1" vertex="1">
          <mxGeometry x="1119" y="1290" width="120" height="126" as="geometry" />
        </mxCell>
        <mxCell id="HgUclgAVwhv4iRQHbnZD-1552" value="Connaissance des enjeux&lt;br&gt;bénéfice de l&#39;action collective" style="rounded=1;fillColor=#f08e81;strokeColor=none;strokeWidth=3;shadow=0;html=1;fontColor=#FFFFFF;" parent="1" vertex="1">
          <mxGeometry x="1246.5" y="1201" width="155" height="40" as="geometry" />
        </mxCell>
        <mxCell id="HgUclgAVwhv4iRQHbnZD-1553" value="Envie, partage, échange&lt;br&gt;Un socle commun et&lt;br&gt;clair" style="rounded=1;fillColor=#f08e81;strokeColor=none;strokeWidth=3;shadow=0;html=1;fontColor=#FFFFFF;" parent="1" vertex="1">
          <mxGeometry x="1150" y="1508" width="131" height="40" as="geometry" />
        </mxCell>
        <mxCell id="HgUclgAVwhv4iRQHbnZD-1554" value="- Rassemblement&amp;nbsp;&lt;br&gt;- Co-construction" style="rounded=1;fillColor=#f08e81;strokeColor=none;strokeWidth=3;shadow=0;html=1;fontColor=#FFFFFF;" parent="1" vertex="1">
          <mxGeometry x="984" y="1191" width="120" height="40" as="geometry" />
        </mxCell>
        <mxCell id="HgUclgAVwhv4iRQHbnZD-1555" value="Le collectif" style="rounded=1;fillColor=#f08e81;strokeColor=none;strokeWidth=3;shadow=0;html=1;fontColor=#FFFFFF;" parent="1" vertex="1">
          <mxGeometry x="929" y="1251" width="120" height="40" as="geometry" />
        </mxCell>
        <mxCell id="HgUclgAVwhv4iRQHbnZD-1556" value="La connaissance public&lt;br&gt;la crédibilité&lt;br&gt;Etre utile aux alternatives" style="rounded=1;fillColor=#f08e81;strokeColor=none;strokeWidth=3;shadow=0;html=1;fontColor=#FFFFFF;" parent="1" vertex="1">
          <mxGeometry x="896" y="1310" width="133" height="44" as="geometry" />
        </mxCell>
        <mxCell id="HgUclgAVwhv4iRQHbnZD-1557" value="Intelligence collective&lt;br&gt;agir sans perdre le&lt;br&gt;sens des actions" style="rounded=1;fillColor=#f08e81;strokeColor=none;strokeWidth=3;shadow=0;html=1;fontColor=#FFFFFF;" parent="1" vertex="1">
          <mxGeometry x="924" y="1371" width="120" height="40" as="geometry" />
        </mxCell>
        <mxCell id="HgUclgAVwhv4iRQHbnZD-1558" value="Collectif = Force&lt;br&gt;Baromètre = visibilité" style="rounded=1;fillColor=#f08e81;strokeColor=none;strokeWidth=3;shadow=0;html=1;fontColor=#FFFFFF;" parent="1" vertex="1">
          <mxGeometry x="959" y="1433.5" width="120" height="40" as="geometry" />
        </mxCell>
        <mxCell id="HgUclgAVwhv4iRQHbnZD-1559" value="Les sous&lt;br&gt;l&#39;Energie&amp;nbsp;&lt;br&gt;les autres" style="rounded=1;fillColor=#f08e81;strokeColor=none;strokeWidth=3;shadow=0;html=1;fontColor=#FFFFFF;" parent="1" vertex="1">
          <mxGeometry x="1029" y="1483.5" width="120" height="40" as="geometry" />
        </mxCell>
        <mxCell id="HgUclgAVwhv4iRQHbnZD-1560" value="La rencontre et les idéaux&lt;br&gt;communs, l&#39;urgence&lt;br&gt;la vision systémique&amp;nbsp;" style="rounded=1;fillColor=#f08e81;strokeColor=none;strokeWidth=3;shadow=0;html=1;fontColor=#FFFFFF;" parent="1" vertex="1">
          <mxGeometry x="1266" y="1464.5" width="156" height="40" as="geometry" />
        </mxCell>
        <mxCell id="HgUclgAVwhv4iRQHbnZD-1561" value="jouer collectif&lt;br&gt;nombreux&lt;br&gt;forts" style="rounded=1;fillColor=#f08e81;strokeColor=none;strokeWidth=3;shadow=0;html=1;fontColor=#FFFFFF;" parent="1" vertex="1">
          <mxGeometry x="1324" y="1406" width="120" height="40" as="geometry" />
        </mxCell>
        <mxCell id="HgUclgAVwhv4iRQHbnZD-1562" value="Conviction envie d&#39;agir&lt;br&gt;Un objectif commun&lt;br&gt;collectif égo de coté" style="rounded=1;fillColor=#f08e81;strokeColor=none;strokeWidth=3;shadow=0;html=1;fontColor=#FFFFFF;" parent="1" vertex="1">
          <mxGeometry x="1344" y="1300" width="136" height="50.5" as="geometry" />
        </mxCell>
        <mxCell id="HgUclgAVwhv4iRQHbnZD-1563" value="" style="edgeStyle=none;endArrow=none;strokeWidth=3;strokeColor=#F08E81;html=1;" parent="1" edge="1">
          <mxGeometry x="749" y="174" width="100" height="100" as="geometry">
            <mxPoint x="1238.7451443476493" y="1345.199500548772" as="sourcePoint" />
            <mxPoint x="1344" y="1334.5" as="targetPoint" />
          </mxGeometry>
        </mxCell>
        <mxCell id="HgUclgAVwhv4iRQHbnZD-1566" value="" style="edgeStyle=none;endArrow=none;strokeWidth=3;strokeColor=#F08E81;html=1;" parent="1" source="HgUclgAVwhv4iRQHbnZD-1551" target="HgUclgAVwhv4iRQHbnZD-1554" edge="1">
          <mxGeometry x="749" y="176" width="100" height="100" as="geometry">
            <mxPoint x="749" y="276" as="sourcePoint" />
            <mxPoint x="849" y="176" as="targetPoint" />
          </mxGeometry>
        </mxCell>
        <mxCell id="HgUclgAVwhv4iRQHbnZD-1567" value="" style="edgeStyle=none;endArrow=none;strokeWidth=3;strokeColor=#F08E81;html=1;" parent="1" source="HgUclgAVwhv4iRQHbnZD-1551" target="HgUclgAVwhv4iRQHbnZD-1555" edge="1">
          <mxGeometry x="749" y="176" width="100" height="100" as="geometry">
            <mxPoint x="749" y="276" as="sourcePoint" />
            <mxPoint x="849" y="176" as="targetPoint" />
          </mxGeometry>
        </mxCell>
        <mxCell id="HgUclgAVwhv4iRQHbnZD-1568" value="" style="edgeStyle=none;endArrow=none;strokeWidth=3;strokeColor=#F08E81;html=1;" parent="1" source="HgUclgAVwhv4iRQHbnZD-1551" edge="1">
          <mxGeometry x="749" y="176" width="100" height="100" as="geometry">
            <mxPoint x="749" y="276" as="sourcePoint" />
            <mxPoint x="1029" y="1334.5714285714284" as="targetPoint" />
          </mxGeometry>
        </mxCell>
        <mxCell id="HgUclgAVwhv4iRQHbnZD-1569" value="" style="edgeStyle=none;endArrow=none;strokeWidth=3;strokeColor=#F08E81;html=1;" parent="1" source="HgUclgAVwhv4iRQHbnZD-1551" target="HgUclgAVwhv4iRQHbnZD-1557" edge="1">
          <mxGeometry x="749" y="176" width="100" height="100" as="geometry">
            <mxPoint x="749" y="276" as="sourcePoint" />
            <mxPoint x="849" y="176" as="targetPoint" />
          </mxGeometry>
        </mxCell>
        <mxCell id="HgUclgAVwhv4iRQHbnZD-1570" value="" style="edgeStyle=none;endArrow=none;strokeWidth=3;strokeColor=#F08E81;html=1;" parent="1" source="HgUclgAVwhv4iRQHbnZD-1551" target="HgUclgAVwhv4iRQHbnZD-1558" edge="1">
          <mxGeometry x="749" y="176" width="100" height="100" as="geometry">
            <mxPoint x="749" y="276" as="sourcePoint" />
            <mxPoint x="849" y="176" as="targetPoint" />
          </mxGeometry>
        </mxCell>
        <mxCell id="HgUclgAVwhv4iRQHbnZD-1571" value="" style="edgeStyle=none;endArrow=none;strokeWidth=3;strokeColor=#F08E81;html=1;" parent="1" source="HgUclgAVwhv4iRQHbnZD-1551" target="HgUclgAVwhv4iRQHbnZD-1559" edge="1">
          <mxGeometry x="749" y="176" width="100" height="100" as="geometry">
            <mxPoint x="749" y="276" as="sourcePoint" />
            <mxPoint x="849" y="176" as="targetPoint" />
          </mxGeometry>
        </mxCell>
        <mxCell id="HgUclgAVwhv4iRQHbnZD-1572" value="" style="edgeStyle=none;endArrow=none;strokeWidth=3;strokeColor=#F08E81;html=1;" parent="1" source="HgUclgAVwhv4iRQHbnZD-1551" edge="1">
          <mxGeometry x="749" y="176" width="100" height="100" as="geometry">
            <mxPoint x="749" y="276" as="sourcePoint" />
            <mxPoint x="1197.024691358025" y="1538.5" as="targetPoint" />
          </mxGeometry>
        </mxCell>
        <mxCell id="HgUclgAVwhv4iRQHbnZD-1573" value="" style="edgeStyle=none;endArrow=none;strokeWidth=3;strokeColor=#F08E81;html=1;" parent="1" source="HgUclgAVwhv4iRQHbnZD-1551" target="HgUclgAVwhv4iRQHbnZD-1560" edge="1">
          <mxGeometry x="749" y="176" width="100" height="100" as="geometry">
            <mxPoint x="749" y="276" as="sourcePoint" />
            <mxPoint x="849" y="176" as="targetPoint" />
          </mxGeometry>
        </mxCell>
        <mxCell id="HgUclgAVwhv4iRQHbnZD-1574" value="" style="edgeStyle=none;endArrow=none;strokeWidth=3;strokeColor=#F08E81;html=1;" parent="1" source="HgUclgAVwhv4iRQHbnZD-1551" target="HgUclgAVwhv4iRQHbnZD-1561" edge="1">
          <mxGeometry x="749" y="176" width="100" height="100" as="geometry">
            <mxPoint x="749" y="276" as="sourcePoint" />
            <mxPoint x="849" y="176" as="targetPoint" />
          </mxGeometry>
        </mxCell>
        <mxCell id="HgUclgAVwhv4iRQHbnZD-1576" value="" style="endArrow=none;html=1;rounded=0;fontFamily=Times New Roman;fontSize=12;strokeWidth=6;strokeColor=#FF9999;" parent="1" edge="1">
          <mxGeometry width="50" height="50" relative="1" as="geometry">
            <mxPoint x="1166" y="1290" as="sourcePoint" />
            <mxPoint x="1166" y="857" as="targetPoint" />
          </mxGeometry>
        </mxCell>
        <mxCell id="HgUclgAVwhv4iRQHbnZD-1577" value="" style="shape=image;html=1;verticalAlign=top;verticalLabelPosition=bottom;labelBackgroundColor=#ffffff;imageAspect=0;aspect=fixed;image=https://cdn4.iconfinder.com/data/icons/transportation-190/1000/monorail_metro_transport_transportation_train_monochrome_car-128.png;fontFamily=Times New Roman;fontSize=12;fontColor=#009900;" parent="1" vertex="1">
          <mxGeometry x="920" y="573.5" width="448" height="448" as="geometry" />
        </mxCell>
        <mxCell id="3sQC1bS-omg2uHEPQ_kN-1542" value="Militants, Elu.e.s, habitants" style="rounded=1;fillColor=#a29dc5;strokeColor=none;strokeWidth=3;shadow=0;html=1;fontColor=#FFFFFF;" parent="1" vertex="1">
          <mxGeometry x="1889.54" y="900" width="170" height="33.56" as="geometry" />
        </mxCell>
        <mxCell id="3sQC1bS-omg2uHEPQ_kN-1543" value="" style="edgeStyle=none;endArrow=none;strokeWidth=3;strokeColor=#A29DC5;html=1;exitX=0.946;exitY=0.283;exitDx=0;exitDy=0;exitPerimeter=0;" parent="1" edge="1">
          <mxGeometry x="-1176.46" y="-637.94" width="100" height="100" as="geometry">
            <mxPoint x="1752.52" y="993.96" as="sourcePoint" />
            <mxPoint x="1913.5040507789959" y="930.56" as="targetPoint" />
          </mxGeometry>
        </mxCell>
        <mxCell id="3sQC1bS-omg2uHEPQ_kN-1544" value="Le + possible avec bcp de diversité&lt;br&gt;importance d&#39;une envie commune&lt;br&gt;Citoyens/asso/orga/collectivité" style="rounded=1;fillColor=#a29dc5;strokeColor=none;strokeWidth=3;shadow=0;html=1;fontColor=#FFFFFF;" parent="1" vertex="1">
          <mxGeometry x="1600" y="870" width="190" height="46.5" as="geometry" />
        </mxCell>
        <mxCell id="3sQC1bS-omg2uHEPQ_kN-1545" value="" style="edgeStyle=none;endArrow=none;strokeWidth=3;strokeColor=#A29DC5;html=1;" parent="1" target="3sQC1bS-omg2uHEPQ_kN-1544" edge="1">
          <mxGeometry x="-1385.46" y="-647" width="100" height="100" as="geometry">
            <mxPoint x="1695" y="964" as="sourcePoint" />
            <mxPoint x="1695" y="903.5" as="targetPoint" />
            <Array as="points">
              <mxPoint x="1695" y="905" />
              <mxPoint x="1695" y="914" />
            </Array>
          </mxGeometry>
        </mxCell>
        <mxCell id="3sQC1bS-omg2uHEPQ_kN-1546" value="De belles personnes pour un beau&lt;br&gt;voyage" style="rounded=1;fillColor=#a29dc5;strokeColor=none;strokeWidth=3;shadow=0;html=1;fontColor=#FFFFFF;" parent="1" vertex="1">
          <mxGeometry x="1375" y="1078.5" width="190" height="38.5" as="geometry" />
        </mxCell>
        <mxCell id="3sQC1bS-omg2uHEPQ_kN-1547" value="" style="edgeStyle=none;endArrow=none;strokeWidth=3;strokeColor=#A29DC5;html=1;" parent="1" source="3sQC1bS-omg2uHEPQ_kN-1546" edge="1">
          <mxGeometry x="-1421.71" y="-527.5" width="100" height="100" as="geometry">
            <mxPoint x="1550" y="1070" as="sourcePoint" />
            <mxPoint x="1642.29" y="1029.4657911340141" as="targetPoint" />
          </mxGeometry>
        </mxCell>
        <mxCell id="3sQC1bS-omg2uHEPQ_kN-1548" value="collectif pour la justice climatique&amp;nbsp;&lt;br&gt;et sociale (habitants, elu.e.s,&lt;br&gt;entreprise)" style="rounded=1;fillColor=#a29dc5;strokeColor=none;strokeWidth=3;shadow=0;html=1;fontColor=#FFFFFF;" parent="1" vertex="1">
          <mxGeometry x="1360" y="990" width="181" height="46.5" as="geometry" />
        </mxCell>
        <mxCell id="3sQC1bS-omg2uHEPQ_kN-1549" value="" style="edgeStyle=none;endArrow=none;strokeWidth=3;strokeColor=#A29DC5;html=1;" parent="1" source="1354" target="3sQC1bS-omg2uHEPQ_kN-1548" edge="1">
          <mxGeometry x="-1144" y="-518.5" width="100" height="100" as="geometry">
            <mxPoint x="1800.4565520996684" y="1054.9428036874283" as="sourcePoint" />
            <mxPoint x="-1044" y="-518.5" as="targetPoint" />
          </mxGeometry>
        </mxCell>
        <mxCell id="3sQC1bS-omg2uHEPQ_kN-1551" value="" style="edgeStyle=none;endArrow=none;strokeWidth=3;strokeColor=#F08E81;html=1;entryX=0.468;entryY=1.005;entryDx=0;entryDy=0;entryPerimeter=0;" parent="1" source="HgUclgAVwhv4iRQHbnZD-1551" target="HgUclgAVwhv4iRQHbnZD-1552" edge="1">
          <mxGeometry x="729" y="79.8" width="100" height="100" as="geometry">
            <mxPoint x="1218.7451443476493" y="1250.999500548772" as="sourcePoint" />
            <mxPoint x="1324" y="1240.3" as="targetPoint" />
          </mxGeometry>
        </mxCell>
      </root>
    </mxGraphModel>
  </diagram>
</mxfile>
